<svg width="39" height="36" viewBox="0 0 39 36" fill="none" xmlns="http://www.w3.org/2000/svg">
<path d="M19.4358 25.8023C22.8707 25.8023 25.6552 23.0018 25.6552 19.5472C25.6552 16.0926 22.8707 13.2921 19.4358 13.2921C16.0009 13.2921 13.2163 16.0926 13.2163 19.5472C13.2163 23.0018 16.0009 25.8023 19.4358 25.8023Z" fill="#111111"/>
<path d="M13.6051 0L10.0483 3.90945H3.88716C1.73951 3.90945 0 5.65893 0 7.8189V31.2756C0 33.4356 1.73951 35.185 3.88716 35.185H34.9845C37.1321 35.185 38.8716 33.4356 38.8716 31.2756V7.8189C38.8716 5.65893 37.1321 3.90945 34.9845 3.90945H28.8233L25.2666 0H13.6051ZM19.4358 29.3209C14.0715 29.3209 9.71791 24.9423 9.71791 19.5472C9.71791 14.1522 14.0715 9.77362 19.4358 9.77362C24.8001 9.77362 29.1537 14.1522 29.1537 19.5472C29.1537 24.9423 24.8001 29.3209 19.4358 29.3209Z" fill="#111111"/>
</svg>
