<svg width="32" height="32" viewBox="0 0 32 32" fill="none" xmlns="http://www.w3.org/2000/svg">
<path d="M25.12 4.59294L22.22 7.32235C23.9823 8.32108 25.4406 9.73147 26.4533 11.4168C27.466 13.102 27.9988 15.005 28 16.9412C28 19.9366 26.7357 22.8093 24.4853 24.9273C22.2348 27.0454 19.1826 28.2353 16 28.2353C12.8174 28.2353 9.76516 27.0454 7.51472 24.9273C5.26429 22.8093 4.00001 19.9366 4.00001 16.9412C4.00001 12.8565 6.32001 9.29882 9.76 7.30353L6.88001 4.59294C4.7558 5.97231 3.01968 7.81698 1.82116 9.96809C0.622638 12.1192 -0.00235403 14.5123 6.66274e-06 16.9412C6.66274e-06 20.935 1.68572 24.7653 4.6863 27.5894C7.68688 30.4135 11.7565 32 16 32C20.2435 32 24.3131 30.4135 27.3137 27.5894C30.3143 24.7653 32 20.935 32 16.9412C32 11.8212 29.28 7.30353 25.12 4.59294ZM18 0H14V18.8235H18" fill="black"/>
</svg>
