<svg width="26" height="26" viewBox="0 0 26 26" fill="none" xmlns="http://www.w3.org/2000/svg">
<path d="M12.9999 6.5906C9.45303 6.5906 6.59053 9.4531 6.59053 13C6.59053 16.5469 9.45303 19.4094 12.9999 19.4094C16.5468 19.4094 19.4093 16.5469 19.4093 13C19.4093 9.4531 16.5468 6.5906 12.9999 6.5906ZM12.9999 17.1656C10.7062 17.1656 8.83428 15.2937 8.83428 13C8.83428 10.7062 10.7062 8.83435 12.9999 8.83435C15.2937 8.83435 17.1655 10.7062 17.1655 13C17.1655 15.2937 15.2937 17.1656 12.9999 17.1656ZM19.6718 4.83435C18.8437 4.83435 18.1749 5.5031 18.1749 6.33123C18.1749 7.15935 18.8437 7.8281 19.6718 7.8281C20.4999 7.8281 21.1687 7.16248 21.1687 6.33123C21.1689 6.13459 21.1304 5.93983 21.0552 5.75811C20.9801 5.57639 20.8698 5.41127 20.7308 5.27223C20.5917 5.13318 20.4266 5.02293 20.2449 4.94779C20.0632 4.87266 19.8684 4.83411 19.6718 4.83435ZM25.4937 13C25.4937 11.275 25.5093 9.5656 25.4124 7.84373C25.3155 5.84373 24.8593 4.06873 23.3968 2.60623C21.9312 1.1406 20.1593 0.687477 18.1593 0.590602C16.4343 0.493727 14.7249 0.509352 13.003 0.509352C11.278 0.509352 9.56866 0.493727 7.84678 0.590602C5.84678 0.687477 4.07178 1.14373 2.60928 2.60623C1.14365 4.07185 0.690529 5.84373 0.593654 7.84373C0.496779 9.56873 0.512404 11.2781 0.512404 13C0.512404 14.7219 0.496779 16.4344 0.593654 18.1562C0.690529 20.1562 1.14678 21.9312 2.60928 23.3937C4.0749 24.8594 5.84678 25.3125 7.84678 25.4094C9.57178 25.5062 11.2812 25.4906 13.003 25.4906C14.728 25.4906 16.4374 25.5062 18.1593 25.4094C20.1593 25.3125 21.9343 24.8562 23.3968 23.3937C24.8624 21.9281 25.3155 20.1562 25.4124 18.1562C25.5124 16.4344 25.4937 14.725 25.4937 13ZM22.7437 20.3687C22.5155 20.9375 22.2405 21.3625 21.7999 21.8C21.3593 22.2406 20.9374 22.5156 20.3687 22.7437C18.7249 23.3969 14.8218 23.25 12.9999 23.25C11.178 23.25 7.27178 23.3969 5.62803 22.7469C5.05928 22.5187 4.63428 22.2437 4.19678 21.8031C3.75615 21.3625 3.48115 20.9406 3.25303 20.3719C2.60303 18.725 2.7499 14.8219 2.7499 13C2.7499 11.1781 2.60303 7.27185 3.25303 5.6281C3.48115 5.05935 3.75615 4.63435 4.19678 4.19685C4.6374 3.75935 5.05928 3.48123 5.62803 3.2531C7.27178 2.6031 11.178 2.74998 12.9999 2.74998C14.8218 2.74998 18.728 2.6031 20.3718 3.2531C20.9405 3.48123 21.3655 3.75623 21.803 4.19685C22.2437 4.63748 22.5187 5.05935 22.7468 5.6281C23.3968 7.27185 23.2499 11.1781 23.2499 13C23.2499 14.8219 23.3968 18.725 22.7437 20.3687Z" fill="black"/>
</svg>
